<svg xmlns="http://www.w3.org/2000/svg" width="1600" height="900" viewBox="0 0 1600 900" fill="none">
  <defs>
    <linearGradient id="fade" x1="0" y1="0" x2="1" y2="1">
      <stop offset="0" stop-color="#fffdf9" stop-opacity="0" />
      <stop offset="0.42" stop-color="#cfb07c" stop-opacity="0.12" />
      <stop offset="1" stop-color="#8fa58c" stop-opacity="0.08" />
    </linearGradient>
    <mask id="edgeFade">
      <rect width="1600" height="900" fill="url(#fade)" />
    </mask>
  </defs>
  <g mask="url(#edgeFade)" stroke-linecap="round" stroke-linejoin="round">
    <g stroke="#c6a66d" stroke-width="1.1" opacity="0.52">
      <path d="M760 44c121-78 279-35 314 71 33 99-82 160-34 256 46 92 208 72 240 179 37 125-96 218-30 318" />
      <path d="M812 18c112-48 243-2 267 91 26 100-83 152-47 246 37 98 189 86 220 191 33 111-84 211-31 328" />
      <path d="M870 9c102-20 202 26 221 105 24 100-69 144-43 232 30 101 169 100 200 198 31 99-66 204-29 322" />
      <path d="M930 14c87 4 164 47 181 112 28 106-55 139-35 223 26 104 150 111 183 201 34 94-46 196-26 307" />
      <path d="M1002 28c70 25 127 61 141 116 29 110-44 132-29 213 20 107 130 120 165 204 37 89-28 185-21 286" />
      <path d="M1080 48c56 32 94 63 108 112 31 108-29 124-18 203 14 108 110 125 148 203 38 81-12 171-16 266" />
    </g>
    <g stroke="#8ca18b" stroke-width="0.95" opacity="0.38">
      <path d="M1130 108c85-29 196 4 235 77 41 78-23 147 28 214 49 64 165 53 207 125" />
      <path d="M1110 151c91-25 191 13 221 82 31 71-22 133 22 196 46 64 149 59 192 130" />
      <path d="M1093 198c93-18 181 20 204 82 25 66-17 121 23 181 42 63 131 64 174 132" />
      <path d="M1078 247c92-9 168 29 186 84 20 62-10 108 25 167 38 63 113 69 153 135" />
    </g>
    <g stroke="#d49a6e" stroke-width="1" opacity="0.32" stroke-dasharray="4 10">
      <path d="M542 116c126 43 183 110 276 104 105-7 159-105 262-69 91 32 105 133 196 145 101 13 171-94 282-68" />
      <path d="M498 166c119 47 172 113 263 113 109 0 169-93 270-55 93 35 108 130 202 145 105 17 179-83 287-54" />
      <path d="M452 220c111 48 161 112 250 117 112 6 177-79 276-40 96 38 112 125 208 145 109 22 185-70 288-39" />
    </g>
    <g stroke="#d1a452" opacity="0.23">
      <path d="M520 664c88-48 160-40 236 13 66 46 112 46 181 4 72-43 140-49 216-4 78 46 147 50 235-3" stroke-width="1.2" />
      <path d="M536 692c80-42 148-34 219 15 66 45 111 45 178 5 74-43 140-44 211-3 76 44 144 49 228-2" stroke-width="0.9" />
      <path d="M552 721c75-37 137-27 204 18 62 42 109 43 173 6 72-41 136-38 202 0 73 42 139 46 220 0" stroke-width="0.8" />
    </g>
    <g stroke="#c79049" stroke-width="0.9" opacity="0.25">
      <path d="M760 475c12-35 27-37 39 0s27 37 39 0 27-37 39 0 27 37 39 0 27-37 39 0 27 37 39 0 27-37 39 0 27 37 39 0 27-37 39 0 27 37 39 0 27-37 39 0 27 37 39 0" />
      <path d="M760 492c14-19 28-20 42 0s28 20 42 0 28-20 42 0 28 20 42 0 28-20 42 0 28 20 42 0 28-20 42 0 28 20 42 0 28-20 42 0 28 20 42 0" />
    </g>
  </g>
</svg>
