<svg xmlns="http://www.w3.org/2000/svg" width="420" height="520" viewBox="0 0 420 520" fill="none">
  <defs>
    <linearGradient id="ridgeA" x1="40" y1="250" x2="260" y2="500" gradientUnits="userSpaceOnUse">
      <stop stop-color="#E64931" />
      <stop offset="0.58" stop-color="#D41E1E" />
      <stop offset="1" stop-color="#9F1017" />
    </linearGradient>
    <linearGradient id="ridgeB" x1="160" y1="286" x2="380" y2="510" gradientUnits="userSpaceOnUse">
      <stop stop-color="#F07A50" />
      <stop offset="0.52" stop-color="#E13C2F" />
      <stop offset="1" stop-color="#B3171D" />
    </linearGradient>
    <linearGradient id="mist" x1="208" y1="316" x2="212" y2="500" gradientUnits="userSpaceOnUse">
      <stop stop-color="#FFF8EE" stop-opacity="0" />
      <stop offset="1" stop-color="#FFF3E7" stop-opacity="0.9" />
    </linearGradient>
    <radialGradient id="sun" cx="0" cy="0" r="1" gradientTransform="translate(315 178) rotate(90) scale(56)">
      <stop stop-color="#F6B62C" stop-opacity="0.95" />
      <stop offset="0.72" stop-color="#E59617" stop-opacity="0.88" />
      <stop offset="1" stop-color="#D88711" stop-opacity="0" />
    </radialGradient>
    <filter id="glow" x="-40%" y="-40%" width="180%" height="180%">
      <feGaussianBlur stdDeviation="3" />
    </filter>
    <clipPath id="mountains">
      <path d="M0 327 50 283l34 31 41-64 47 55 57-79 58 73 41-41 92 89v173H0Z" />
    </clipPath>
  </defs>

  <circle cx="315" cy="178" r="42" fill="url(#sun)" />
  <g stroke="#DDAE65" stroke-width="1" opacity="0.32">
    <circle cx="315" cy="178" r="61" />
    <circle cx="315" cy="178" r="78" />
    <circle cx="315" cy="178" r="95" />
  </g>

  <path d="M0 353 50 302l36 32 47-75 51 64 60-91 55 79 45-44 76 70v183H0Z" fill="url(#ridgeB)" opacity="0.76" />
  <path d="M0 327 50 283l34 31 41-64 47 55 57-79 58 73 41-41 92 89v173H0Z" fill="url(#ridgeA)" />
  <path d="M0 368c82-20 125 14 188-11 75-31 136-37 232 6v157H0Z" fill="#B41419" opacity="0.42" />

  <g clip-path="url(#mountains)" fill="none" stroke="#FFD2B3" stroke-width="0.9" opacity="0.45">
    <path d="M-18 339c50-31 98-28 142-2s88 32 138 3 96-30 176 6" />
    <path d="M-17 357c52-28 100-23 143 3 46 28 90 31 140 2 52-30 102-26 172 11" />
    <path d="M-18 378c58-26 104-17 145 8 48 30 95 28 145 2 54-28 103-18 166 19" />
    <path d="M-18 400c64-20 108-7 147 18 48 30 98 25 148 2 56-25 104-10 161 26" />
    <path d="M-18 424c67-15 112 0 151 24 48 28 99 22 149 2 57-22 104-2 156 31" />
    <path d="M-18 450c70-8 116 8 156 31 48 26 98 18 149 1 57-19 101 5 151 35" />
    <path d="M17 276 50 302l36 32 47-75 51 64 60-91 55 79 45-44 76 70" />
    <path d="M48 281 84 314l41-64 47 55 57-79 58 73 41-41" />
  </g>

  <path d="M14 489c52-38 86-61 119-75 30-13 55-21 78-54 31-45 55-69 111-91" stroke="#FFF8EC" stroke-width="4" stroke-linecap="round" opacity="0.95" />
  <path d="M14 489c52-38 86-61 119-75 30-13 55-21 78-54 31-45 55-69 111-91" stroke="#F8C14A" stroke-width="10" stroke-linecap="round" opacity="0.18" filter="url(#glow)" />

  <g fill="#F5B72F" stroke="#FFF9EF" stroke-width="3">
    <circle cx="82" cy="442" r="6" />
    <circle cx="145" cy="407" r="5" />
    <circle cx="208" cy="365" r="6" />
    <circle cx="270" cy="310" r="5" />
  </g>

  <g stroke="#E7B751" stroke-width="1" opacity="0.35" stroke-dasharray="2 6">
    <path d="M39 250c60-42 119-35 166 3s102 45 177 4" />
    <path d="M18 229c78-48 142-39 190 2s102 49 188 9" />
  </g>

  <rect y="338" width="420" height="182" fill="url(#mist)" />
</svg>
